<svg xmlns="http://www.w3.org/2000/svg" viewBox="0 0 200 200" role="img" aria-label="Ragurgitator app tile">
  <title>Ragurgitator — spew</title>
  <defs><clipPath id="clip-spew"><rect width="200" height="200" rx="46"/></clipPath></defs>
  <rect width="200" height="200" rx="46" fill="#F2543D"/>
  <g clip-path="url(#clip-spew)">
  <g transform="translate(-2 6) scale(0.88)"><path d="M72 113.8 Q 111.8 127.9 152 170" stroke="#14161B" stroke-width="30" stroke-linecap="round" fill="none"/>
  <rect x="46" y="44" width="32" height="126" rx="16" fill="#14161B"/>
  <circle cx="108" cy="74" r="48" fill="#14161B"/>
  <path d="M 75 74 L 155.6 17.3 A 74 74 0 0 1 155.6 130.7 Z" fill="#F2543D"/>
  <path d="M 139.4 36.9 L 139.1 51 L 126.8 44.1 Z M 124.8 45.4 L 123.9 57.1 L 113.4 51.9 Z M 110.1 53.8 L 108.7 63.2 L 99.9 59.7 Z M 132.1 106.9 L 131.5 94 L 120.1 100 Z M 117.4 98.4 L 116.3 87.8 L 106.6 92.2 Z M 102.8 90 L 101.2 81.7 L 93.2 84.5 Z" fill="#14161B"/></g>
  <rect x="126" y="54" width="25" height="21" rx="7" transform="rotate(-12 138.5 64.5)" fill="#14161B"/>
  <rect x="152" y="32" width="20" height="17" rx="5.6" transform="rotate(14 162 40.5)" fill="#14161B"/>
  <rect x="174" y="12" width="16" height="14" rx="4.5" transform="rotate(-18 182 19)" fill="#14161B"/>
  </g>
</svg>
